<svg viewBox="0 0 100 100" xmlns="http://www.w3.org/2000/svg">
  <defs><linearGradient id="bg" x1="0" y1="0" x2="1" y2="1"><stop offset="0" stop-color="#7048e8"/><stop offset="1" stop-color="#301667"/></linearGradient></defs>
  <rect width="100" height="100" fill="url(#bg)"/>
  <path d="M16 100 C16 80 32 71 50 71 C68 71 84 80 84 100 Z" fill="#5fa05a"/>
  
  
  <circle cx="29" cy="46" r="4" fill="#a0662f"/><circle cx="71" cy="46" r="4" fill="#a0662f"/>
  <rect x="44" y="60" width="12" height="14" rx="6" fill="#a0662f"/>
  <circle cx="50" cy="45" r="21" fill="#a0662f"/>
  <path d="M28 44 Q28 23 50 23 Q72 23 72 44 Q67 31 50 31 Q33 31 28 44Z" fill="#241a12"/>
  
  
  <circle cx="42.5" cy="46" r="2.2" fill="#241a12"/><circle cx="57.5" cy="46" r="2.2" fill="#241a12"/>
  
  <path d="M45 53 Q50 57 55 53" stroke="#241a12" stroke-width="1.8" fill="none" stroke-linecap="round"/>
  
</svg>